<svg xmlns="http://www.w3.org/2000/svg" xmlns:xlink="http://www.w3.org/1999/xlink" width="500" zoomAndPan="magnify" viewBox="0 0 375 374.999991" height="500" preserveAspectRatio="xMidYMid meet" version="1.0"><defs><g/><clipPath id="08eb352da9"><path d="M 313.460938 196.980469 L 324.382812 196.980469 L 324.382812 207.902344 L 313.460938 207.902344 Z M 313.460938 196.980469 " clip-rule="nonzero"/></clipPath><clipPath id="40d39ab67a"><path d="M 318.921875 196.980469 C 315.90625 196.980469 313.460938 199.425781 313.460938 202.441406 C 313.460938 205.457031 315.90625 207.902344 318.921875 207.902344 C 321.9375 207.902344 324.382812 205.457031 324.382812 202.441406 C 324.382812 199.425781 321.9375 196.980469 318.921875 196.980469 Z M 318.921875 196.980469 " clip-rule="nonzero"/></clipPath><clipPath id="be786220c6"><path d="M 37.5 153.390625 L 102.75 153.390625 L 102.75 221.640625 L 37.5 221.640625 Z M 37.5 153.390625 " clip-rule="nonzero"/></clipPath><clipPath id="8e3048937e"><path d="M 74.828125 185.171875 L 45.824219 185.171875 C 44.699219 185.171875 43.886719 184.101562 44.1875 183.015625 L 52.152344 154.640625 C 52.355469 153.90625 53.023438 153.398438 53.785156 153.398438 L 82.789062 153.398438 C 83.914062 153.398438 84.730469 154.472656 84.425781 155.558594 L 76.460938 183.933594 C 76.257812 184.667969 75.589844 185.171875 74.828125 185.171875 Z M 55.988281 206.59375 L 60.089844 191.984375 C 60.394531 190.898438 59.578125 189.824219 58.453125 189.824219 L 43.542969 189.824219 C 42.785156 189.824219 42.113281 190.332031 41.910156 191.066406 L 37.808594 205.675781 C 37.503906 206.757812 38.320312 207.832031 39.445312 207.832031 L 54.355469 207.832031 C 55.117188 207.832031 55.785156 207.328125 55.988281 206.59375 Z M 63.535156 191.066406 L 55.570312 219.441406 C 55.265625 220.527344 56.082031 221.597656 57.207031 221.597656 L 86.210938 221.597656 C 86.972656 221.597656 87.640625 221.09375 87.84375 220.359375 L 95.808594 191.984375 C 96.113281 190.898438 95.296875 189.824219 94.171875 189.824219 L 65.167969 189.824219 C 64.40625 189.824219 63.738281 190.332031 63.535156 191.066406 Z M 84.007812 168.40625 L 79.90625 183.015625 C 79.605469 184.101562 80.417969 185.171875 81.542969 185.171875 L 96.453125 185.171875 C 97.214844 185.171875 97.882812 184.667969 98.085938 183.933594 L 102.1875 169.324219 C 102.492188 168.238281 101.675781 167.167969 100.550781 167.167969 L 85.640625 167.167969 C 84.882812 167.167969 84.214844 167.671875 84.007812 168.40625 Z M 84.007812 168.40625 " clip-rule="nonzero"/></clipPath><linearGradient x1="114.296442" gradientTransform="matrix(0.136399, 0, 0, 0.136399, 37.745522, 153.400056)" y1="-47.63397" x2="358.621829" gradientUnits="userSpaceOnUse" y2="547.633966" id="5a62aeb681"><stop stop-opacity="1" stop-color="rgb(0%, 98.799133%, 65.899658%)" offset="0"/><stop stop-opacity="1" stop-color="rgb(0%, 98.799133%, 65.899658%)" offset="0.0625"/><stop stop-opacity="1" stop-color="rgb(0.193787%, 98.800659%, 65.965271%)" offset="0.09375"/><stop stop-opacity="1" stop-color="rgb(0.915527%, 98.809814%, 66.212463%)" offset="0.0976562"/><stop stop-opacity="1" stop-color="rgb(1.443481%, 98.815918%, 66.392517%)" offset="0.101562"/><stop stop-opacity="1" stop-color="rgb(1.96991%, 98.822021%, 66.571045%)" offset="0.105469"/><stop stop-opacity="1" stop-color="rgb(2.497864%, 98.829651%, 66.751099%)" offset="0.109375"/><stop stop-opacity="1" stop-color="rgb(3.024292%, 98.835754%, 66.931152%)" offset="0.113281"/><stop stop-opacity="1" stop-color="rgb(3.552246%, 98.841858%, 67.111206%)" offset="0.117187"/><stop stop-opacity="1" stop-color="rgb(4.078674%, 98.847961%, 67.289734%)" offset="0.121094"/><stop stop-opacity="1" stop-color="rgb(4.605103%, 98.854065%, 67.469788%)" offset="0.125"/><stop stop-opacity="1" stop-color="rgb(5.131531%, 98.860168%, 67.649841%)" offset="0.128906"/><stop stop-opacity="1" stop-color="rgb(5.659485%, 98.867798%, 67.829895%)" offset="0.132812"/><stop stop-opacity="1" stop-color="rgb(6.185913%, 98.873901%, 68.008423%)" offset="0.136719"/><stop stop-opacity="1" stop-color="rgb(6.713867%, 98.880005%, 68.188477%)" offset="0.140625"/><stop stop-opacity="1" stop-color="rgb(7.240295%, 98.886108%, 68.36853%)" offset="0.144531"/><stop stop-opacity="1" stop-color="rgb(7.76825%, 98.892212%, 68.548584%)" offset="0.148437"/><stop stop-opacity="1" stop-color="rgb(8.294678%, 98.898315%, 68.727112%)" offset="0.152344"/><stop stop-opacity="1" stop-color="rgb(8.822632%, 98.904419%, 68.907166%)" offset="0.15625"/><stop stop-opacity="1" stop-color="rgb(9.34906%, 98.910522%, 69.087219%)" offset="0.160156"/><stop stop-opacity="1" stop-color="rgb(9.875488%, 98.918152%, 69.267273%)" offset="0.164062"/><stop stop-opacity="1" stop-color="rgb(10.401917%, 98.924255%, 69.447327%)" offset="0.167969"/><stop stop-opacity="1" stop-color="rgb(10.929871%, 98.930359%, 69.62738%)" offset="0.171875"/><stop stop-opacity="1" stop-color="rgb(11.456299%, 98.936462%, 69.805908%)" offset="0.175781"/><stop stop-opacity="1" stop-color="rgb(11.984253%, 98.942566%, 69.985962%)" offset="0.179687"/><stop stop-opacity="1" stop-color="rgb(12.510681%, 98.948669%, 70.166016%)" offset="0.183594"/><stop stop-opacity="1" stop-color="rgb(13.038635%, 98.956299%, 70.346069%)" offset="0.1875"/><stop stop-opacity="1" stop-color="rgb(13.565063%, 98.962402%, 70.524597%)" offset="0.191406"/><stop stop-opacity="1" stop-color="rgb(14.091492%, 98.968506%, 70.704651%)" offset="0.195312"/><stop stop-opacity="1" stop-color="rgb(14.61792%, 98.974609%, 70.884705%)" offset="0.199219"/><stop stop-opacity="1" stop-color="rgb(15.145874%, 98.980713%, 71.064758%)" offset="0.203125"/><stop stop-opacity="1" stop-color="rgb(15.672302%, 98.986816%, 71.243286%)" offset="0.207031"/><stop stop-opacity="1" stop-color="rgb(16.200256%, 98.99292%, 71.42334%)" offset="0.210937"/><stop stop-opacity="1" stop-color="rgb(16.726685%, 98.999023%, 71.603394%)" offset="0.214844"/><stop stop-opacity="1" stop-color="rgb(17.254639%, 99.006653%, 71.783447%)" offset="0.21875"/><stop stop-opacity="1" stop-color="rgb(17.781067%, 99.012756%, 71.961975%)" offset="0.222656"/><stop stop-opacity="1" stop-color="rgb(18.309021%, 99.01886%, 72.142029%)" offset="0.226562"/><stop stop-opacity="1" stop-color="rgb(18.835449%, 99.024963%, 72.322083%)" offset="0.230469"/><stop stop-opacity="1" stop-color="rgb(19.361877%, 99.031067%, 72.502136%)" offset="0.234375"/><stop stop-opacity="1" stop-color="rgb(19.888306%, 99.03717%, 72.68219%)" offset="0.238281"/><stop stop-opacity="1" stop-color="rgb(20.41626%, 99.0448%, 72.862244%)" offset="0.242188"/><stop stop-opacity="1" stop-color="rgb(20.942688%, 99.050903%, 73.040771%)" offset="0.246094"/><stop stop-opacity="1" stop-color="rgb(21.470642%, 99.057007%, 73.220825%)" offset="0.25"/><stop stop-opacity="1" stop-color="rgb(21.99707%, 99.06311%, 73.400879%)" offset="0.253906"/><stop stop-opacity="1" stop-color="rgb(22.525024%, 99.069214%, 73.580933%)" offset="0.257812"/><stop stop-opacity="1" stop-color="rgb(23.051453%, 99.075317%, 73.75946%)" offset="0.261719"/><stop stop-opacity="1" stop-color="rgb(23.577881%, 99.082947%, 73.939514%)" offset="0.265625"/><stop stop-opacity="1" stop-color="rgb(24.104309%, 99.08905%, 74.119568%)" offset="0.269531"/><stop stop-opacity="1" stop-color="rgb(24.632263%, 99.095154%, 74.299622%)" offset="0.273437"/><stop stop-opacity="1" stop-color="rgb(25.158691%, 99.101257%, 74.478149%)" offset="0.277344"/><stop stop-opacity="1" stop-color="rgb(25.686646%, 99.107361%, 74.658203%)" offset="0.28125"/><stop stop-opacity="1" stop-color="rgb(26.213074%, 99.113464%, 74.838257%)" offset="0.285156"/><stop stop-opacity="1" stop-color="rgb(26.741028%, 99.119568%, 75.018311%)" offset="0.289062"/><stop stop-opacity="1" stop-color="rgb(27.267456%, 99.125671%, 75.196838%)" offset="0.292969"/><stop stop-opacity="1" stop-color="rgb(27.79541%, 99.133301%, 75.376892%)" offset="0.296875"/><stop stop-opacity="1" stop-color="rgb(28.321838%, 99.139404%, 75.556946%)" offset="0.300781"/><stop stop-opacity="1" stop-color="rgb(28.848267%, 99.145508%, 75.737%)" offset="0.304687"/><stop stop-opacity="1" stop-color="rgb(29.374695%, 99.151611%, 75.917053%)" offset="0.308594"/><stop stop-opacity="1" stop-color="rgb(29.902649%, 99.157715%, 76.097107%)" offset="0.3125"/><stop stop-opacity="1" stop-color="rgb(30.429077%, 99.163818%, 76.275635%)" offset="0.316406"/><stop stop-opacity="1" stop-color="rgb(30.957031%, 99.171448%, 76.455688%)" offset="0.320312"/><stop stop-opacity="1" stop-color="rgb(31.483459%, 99.177551%, 76.635742%)" offset="0.324219"/><stop stop-opacity="1" stop-color="rgb(32.011414%, 99.183655%, 76.815796%)" offset="0.328125"/><stop stop-opacity="1" stop-color="rgb(32.537842%, 99.189758%, 76.994324%)" offset="0.332031"/><stop stop-opacity="1" stop-color="rgb(33.06427%, 99.195862%, 77.174377%)" offset="0.335937"/><stop stop-opacity="1" stop-color="rgb(33.590698%, 99.201965%, 77.354431%)" offset="0.339844"/><stop stop-opacity="1" stop-color="rgb(34.118652%, 99.208069%, 77.534485%)" offset="0.34375"/><stop stop-opacity="1" stop-color="rgb(34.645081%, 99.214172%, 77.713013%)" offset="0.347656"/><stop stop-opacity="1" stop-color="rgb(35.173035%, 99.221802%, 77.893066%)" offset="0.351562"/><stop stop-opacity="1" stop-color="rgb(35.699463%, 99.227905%, 78.07312%)" offset="0.355469"/><stop stop-opacity="1" stop-color="rgb(36.227417%, 99.234009%, 78.253174%)" offset="0.359375"/><stop stop-opacity="1" stop-color="rgb(36.753845%, 99.240112%, 78.431702%)" offset="0.363281"/><stop stop-opacity="1" stop-color="rgb(37.281799%, 99.246216%, 78.611755%)" offset="0.367187"/><stop stop-opacity="1" stop-color="rgb(37.808228%, 99.252319%, 78.791809%)" offset="0.371094"/><stop stop-opacity="1" stop-color="rgb(38.334656%, 99.259949%, 78.971863%)" offset="0.375"/><stop stop-opacity="1" stop-color="rgb(38.861084%, 99.266052%, 79.151917%)" offset="0.378906"/><stop stop-opacity="1" stop-color="rgb(39.389038%, 99.272156%, 79.33197%)" offset="0.382812"/><stop stop-opacity="1" stop-color="rgb(39.915466%, 99.278259%, 79.510498%)" offset="0.386719"/><stop stop-opacity="1" stop-color="rgb(40.44342%, 99.284363%, 79.690552%)" offset="0.390625"/><stop stop-opacity="1" stop-color="rgb(40.969849%, 99.290466%, 79.870605%)" offset="0.394531"/><stop stop-opacity="1" stop-color="rgb(41.497803%, 99.29657%, 80.050659%)" offset="0.398437"/><stop stop-opacity="1" stop-color="rgb(42.024231%, 99.302673%, 80.229187%)" offset="0.402344"/><stop stop-opacity="1" stop-color="rgb(42.550659%, 99.310303%, 80.409241%)" offset="0.40625"/><stop stop-opacity="1" stop-color="rgb(43.077087%, 99.316406%, 80.589294%)" offset="0.410156"/><stop stop-opacity="1" stop-color="rgb(43.605042%, 99.32251%, 80.769348%)" offset="0.414062"/><stop stop-opacity="1" stop-color="rgb(44.13147%, 99.328613%, 80.947876%)" offset="0.417969"/><stop stop-opacity="1" stop-color="rgb(44.659424%, 99.334717%, 81.12793%)" offset="0.421875"/><stop stop-opacity="1" stop-color="rgb(45.185852%, 99.34082%, 81.307983%)" offset="0.425781"/><stop stop-opacity="1" stop-color="rgb(45.713806%, 99.34845%, 81.488037%)" offset="0.429687"/><stop stop-opacity="1" stop-color="rgb(46.240234%, 99.354553%, 81.666565%)" offset="0.433594"/><stop stop-opacity="1" stop-color="rgb(46.768188%, 99.360657%, 81.846619%)" offset="0.4375"/><stop stop-opacity="1" stop-color="rgb(47.294617%, 99.36676%, 82.026672%)" offset="0.441406"/><stop stop-opacity="1" stop-color="rgb(47.821045%, 99.372864%, 82.206726%)" offset="0.445312"/><stop stop-opacity="1" stop-color="rgb(48.347473%, 99.378967%, 82.38678%)" offset="0.449219"/><stop stop-opacity="1" stop-color="rgb(48.875427%, 99.385071%, 82.566833%)" offset="0.453125"/><stop stop-opacity="1" stop-color="rgb(49.401855%, 99.391174%, 82.745361%)" offset="0.457031"/><stop stop-opacity="1" stop-color="rgb(49.92981%, 99.398804%, 82.925415%)" offset="0.460938"/><stop stop-opacity="1" stop-color="rgb(50.456238%, 99.404907%, 83.105469%)" offset="0.464844"/><stop stop-opacity="1" stop-color="rgb(50.984192%, 99.411011%, 83.285522%)" offset="0.46875"/><stop stop-opacity="1" stop-color="rgb(51.51062%, 99.417114%, 83.46405%)" offset="0.472656"/><stop stop-opacity="1" stop-color="rgb(52.037048%, 99.423218%, 83.644104%)" offset="0.476562"/><stop stop-opacity="1" stop-color="rgb(52.563477%, 99.429321%, 83.824158%)" offset="0.480469"/><stop stop-opacity="1" stop-color="rgb(53.091431%, 99.436951%, 84.004211%)" offset="0.484375"/><stop stop-opacity="1" stop-color="rgb(53.617859%, 99.443054%, 84.182739%)" offset="0.488281"/><stop stop-opacity="1" stop-color="rgb(54.145813%, 99.449158%, 84.362793%)" offset="0.492188"/><stop stop-opacity="1" stop-color="rgb(54.672241%, 99.455261%, 84.542847%)" offset="0.496094"/><stop stop-opacity="1" stop-color="rgb(55.200195%, 99.461365%, 84.7229%)" offset="0.5"/><stop stop-opacity="1" stop-color="rgb(55.726624%, 99.467468%, 84.901428%)" offset="0.503906"/><stop stop-opacity="1" stop-color="rgb(56.254578%, 99.473572%, 85.081482%)" offset="0.507812"/><stop stop-opacity="1" stop-color="rgb(56.781006%, 99.479675%, 85.261536%)" offset="0.511719"/><stop stop-opacity="1" stop-color="rgb(57.307434%, 99.487305%, 85.441589%)" offset="0.515625"/><stop stop-opacity="1" stop-color="rgb(57.833862%, 99.493408%, 85.621643%)" offset="0.519531"/><stop stop-opacity="1" stop-color="rgb(58.361816%, 99.499512%, 85.801697%)" offset="0.523437"/><stop stop-opacity="1" stop-color="rgb(58.888245%, 99.505615%, 85.980225%)" offset="0.527344"/><stop stop-opacity="1" stop-color="rgb(59.416199%, 99.511719%, 86.160278%)" offset="0.53125"/><stop stop-opacity="1" stop-color="rgb(59.942627%, 99.517822%, 86.340332%)" offset="0.535156"/><stop stop-opacity="1" stop-color="rgb(60.470581%, 99.525452%, 86.520386%)" offset="0.539062"/><stop stop-opacity="1" stop-color="rgb(60.997009%, 99.531555%, 86.698914%)" offset="0.542969"/><stop stop-opacity="1" stop-color="rgb(61.523438%, 99.537659%, 86.878967%)" offset="0.546875"/><stop stop-opacity="1" stop-color="rgb(62.049866%, 99.543762%, 87.059021%)" offset="0.550781"/><stop stop-opacity="1" stop-color="rgb(62.57782%, 99.549866%, 87.239075%)" offset="0.554688"/><stop stop-opacity="1" stop-color="rgb(63.104248%, 99.555969%, 87.417603%)" offset="0.558594"/><stop stop-opacity="1" stop-color="rgb(63.632202%, 99.562073%, 87.597656%)" offset="0.5625"/><stop stop-opacity="1" stop-color="rgb(64.15863%, 99.568176%, 87.77771%)" offset="0.566406"/><stop stop-opacity="1" stop-color="rgb(64.686584%, 99.575806%, 87.957764%)" offset="0.570312"/><stop stop-opacity="1" stop-color="rgb(65.213013%, 99.581909%, 88.136292%)" offset="0.574219"/><stop stop-opacity="1" stop-color="rgb(65.740967%, 99.588013%, 88.316345%)" offset="0.578125"/><stop stop-opacity="1" stop-color="rgb(66.267395%, 99.594116%, 88.496399%)" offset="0.582031"/><stop stop-opacity="1" stop-color="rgb(66.793823%, 99.60022%, 88.676453%)" offset="0.585938"/><stop stop-opacity="1" stop-color="rgb(67.320251%, 99.606323%, 88.856506%)" offset="0.589844"/><stop stop-opacity="1" stop-color="rgb(67.848206%, 99.613953%, 89.03656%)" offset="0.59375"/><stop stop-opacity="1" stop-color="rgb(68.374634%, 99.620056%, 89.215088%)" offset="0.597656"/><stop stop-opacity="1" stop-color="rgb(68.902588%, 99.62616%, 89.395142%)" offset="0.601562"/><stop stop-opacity="1" stop-color="rgb(69.429016%, 99.632263%, 89.575195%)" offset="0.605469"/><stop stop-opacity="1" stop-color="rgb(69.95697%, 99.638367%, 89.755249%)" offset="0.609375"/><stop stop-opacity="1" stop-color="rgb(70.483398%, 99.64447%, 89.933777%)" offset="0.613281"/><stop stop-opacity="1" stop-color="rgb(71.009827%, 99.6521%, 90.113831%)" offset="0.617187"/><stop stop-opacity="1" stop-color="rgb(71.536255%, 99.658203%, 90.293884%)" offset="0.621094"/><stop stop-opacity="1" stop-color="rgb(72.064209%, 99.664307%, 90.473938%)" offset="0.625"/><stop stop-opacity="1" stop-color="rgb(72.590637%, 99.67041%, 90.652466%)" offset="0.628906"/><stop stop-opacity="1" stop-color="rgb(73.118591%, 99.676514%, 90.83252%)" offset="0.632812"/><stop stop-opacity="1" stop-color="rgb(73.64502%, 99.682617%, 91.012573%)" offset="0.636719"/><stop stop-opacity="1" stop-color="rgb(74.172974%, 99.688721%, 91.192627%)" offset="0.640625"/><stop stop-opacity="1" stop-color="rgb(74.699402%, 99.694824%, 91.371155%)" offset="0.644531"/><stop stop-opacity="1" stop-color="rgb(75.227356%, 99.702454%, 91.551208%)" offset="0.648437"/><stop stop-opacity="1" stop-color="rgb(75.753784%, 99.708557%, 91.731262%)" offset="0.652344"/><stop stop-opacity="1" stop-color="rgb(76.280212%, 99.714661%, 91.911316%)" offset="0.65625"/><stop stop-opacity="1" stop-color="rgb(76.806641%, 99.720764%, 92.09137%)" offset="0.660156"/><stop stop-opacity="1" stop-color="rgb(77.334595%, 99.726868%, 92.271423%)" offset="0.664062"/><stop stop-opacity="1" stop-color="rgb(77.861023%, 99.732971%, 92.449951%)" offset="0.667969"/><stop stop-opacity="1" stop-color="rgb(78.388977%, 99.740601%, 92.630005%)" offset="0.671875"/><stop stop-opacity="1" stop-color="rgb(78.915405%, 99.746704%, 92.810059%)" offset="0.675781"/><stop stop-opacity="1" stop-color="rgb(79.443359%, 99.752808%, 92.990112%)" offset="0.679688"/><stop stop-opacity="1" stop-color="rgb(79.969788%, 99.758911%, 93.16864%)" offset="0.683594"/><stop stop-opacity="1" stop-color="rgb(80.496216%, 99.765015%, 93.348694%)" offset="0.6875"/><stop stop-opacity="1" stop-color="rgb(81.022644%, 99.771118%, 93.528748%)" offset="0.691406"/><stop stop-opacity="1" stop-color="rgb(81.550598%, 99.777222%, 93.708801%)" offset="0.695312"/><stop stop-opacity="1" stop-color="rgb(82.077026%, 99.783325%, 93.887329%)" offset="0.699219"/><stop stop-opacity="1" stop-color="rgb(82.60498%, 99.790955%, 94.067383%)" offset="0.703125"/><stop stop-opacity="1" stop-color="rgb(83.131409%, 99.797058%, 94.247437%)" offset="0.707031"/><stop stop-opacity="1" stop-color="rgb(83.659363%, 99.803162%, 94.42749%)" offset="0.710937"/><stop stop-opacity="1" stop-color="rgb(84.185791%, 99.809265%, 94.606018%)" offset="0.714844"/><stop stop-opacity="1" stop-color="rgb(84.713745%, 99.815369%, 94.786072%)" offset="0.71875"/><stop stop-opacity="1" stop-color="rgb(85.240173%, 99.821472%, 94.966125%)" offset="0.722656"/><stop stop-opacity="1" stop-color="rgb(85.766602%, 99.829102%, 95.146179%)" offset="0.726562"/><stop stop-opacity="1" stop-color="rgb(86.29303%, 99.835205%, 95.326233%)" offset="0.730469"/><stop stop-opacity="1" stop-color="rgb(86.820984%, 99.841309%, 95.506287%)" offset="0.734375"/><stop stop-opacity="1" stop-color="rgb(87.347412%, 99.847412%, 95.684814%)" offset="0.738281"/><stop stop-opacity="1" stop-color="rgb(87.875366%, 99.853516%, 95.864868%)" offset="0.742187"/><stop stop-opacity="1" stop-color="rgb(88.401794%, 99.859619%, 96.044922%)" offset="0.746094"/><stop stop-opacity="1" stop-color="rgb(88.929749%, 99.865723%, 96.224976%)" offset="0.75"/><stop stop-opacity="1" stop-color="rgb(89.456177%, 99.871826%, 96.403503%)" offset="0.753906"/><stop stop-opacity="1" stop-color="rgb(89.982605%, 99.879456%, 96.583557%)" offset="0.757812"/><stop stop-opacity="1" stop-color="rgb(90.509033%, 99.885559%, 96.763611%)" offset="0.761719"/><stop stop-opacity="1" stop-color="rgb(91.036987%, 99.891663%, 96.943665%)" offset="0.765625"/><stop stop-opacity="1" stop-color="rgb(91.563416%, 99.897766%, 97.122192%)" offset="0.769531"/><stop stop-opacity="1" stop-color="rgb(92.09137%, 99.90387%, 97.302246%)" offset="0.773438"/><stop stop-opacity="1" stop-color="rgb(92.617798%, 99.909973%, 97.4823%)" offset="0.777344"/><stop stop-opacity="1" stop-color="rgb(93.145752%, 99.917603%, 97.662354%)" offset="0.78125"/><stop stop-opacity="1" stop-color="rgb(93.67218%, 99.923706%, 97.840881%)" offset="0.785156"/><stop stop-opacity="1" stop-color="rgb(94.200134%, 99.92981%, 98.020935%)" offset="0.789062"/><stop stop-opacity="1" stop-color="rgb(94.726562%, 99.935913%, 98.200989%)" offset="0.792969"/><stop stop-opacity="1" stop-color="rgb(95.252991%, 99.942017%, 98.381042%)" offset="0.796875"/><stop stop-opacity="1" stop-color="rgb(95.779419%, 99.94812%, 98.561096%)" offset="0.800781"/><stop stop-opacity="1" stop-color="rgb(96.307373%, 99.954224%, 98.74115%)" offset="0.804688"/><stop stop-opacity="1" stop-color="rgb(96.833801%, 99.960327%, 98.919678%)" offset="0.808594"/><stop stop-opacity="1" stop-color="rgb(97.361755%, 99.967957%, 99.099731%)" offset="0.8125"/><stop stop-opacity="1" stop-color="rgb(97.888184%, 99.97406%, 99.279785%)" offset="0.816406"/><stop stop-opacity="1" stop-color="rgb(98.416138%, 99.980164%, 99.459839%)" offset="0.820312"/><stop stop-opacity="1" stop-color="rgb(98.942566%, 99.986267%, 99.638367%)" offset="0.824219"/><stop stop-opacity="1" stop-color="rgb(99.47052%, 99.992371%, 99.81842%)" offset="0.828125"/><stop stop-opacity="1" stop-color="rgb(99.734497%, 99.995422%, 99.908447%)" offset="0.832031"/><stop stop-opacity="1" stop-color="rgb(100%, 100%, 100%)" offset="0.835937"/><stop stop-opacity="1" stop-color="rgb(100%, 100%, 100%)" offset="0.84375"/><stop stop-opacity="1" stop-color="rgb(100%, 100%, 100%)" offset="0.875"/><stop stop-opacity="1" stop-color="rgb(100%, 100%, 100%)" offset="1"/></linearGradient></defs><g fill="#ffffff" fill-opacity="1"><g transform="translate(111.227767, 205.517739)"><g><path d="M 37.453125 0 L 35.484375 -24.671875 L 35.234375 -24.671875 L 26.703125 -0.25 L 21.046875 -0.25 L 12.515625 -24.671875 L 12.265625 -24.671875 L 10.296875 0 L 0.8125 0 L 4.546875 -41.640625 L 14.640625 -41.640625 L 23.875 -17.609375 L 33.109375 -41.640625 L 43.203125 -41.640625 L 46.9375 0 Z M 37.453125 0 "/></g></g></g><g fill="#ffffff" fill-opacity="1"><g transform="translate(158.974975, 205.517739)"><g><path d="M 22.65625 -25.890625 L 32.953125 -25.890625 L 12.609375 13.125 L 2.328125 13.125 L 11.25 -4.03125 L -1.015625 -25.890625 L 9.28125 -25.890625 L 16.5 -12.609375 Z M 22.65625 -25.890625 "/></g></g></g><g fill="#00faa8" fill-opacity="1"><g transform="translate(190.92698, 205.517739)"><g><path d="M 3.03125 -41.640625 L 15.09375 -41.640625 C 20.875 -41.640625 25.816406 -39.660156 29.921875 -35.703125 C 34.023438 -31.753906 36.078125 -26.800781 36.078125 -20.84375 C 36.078125 -14.851562 34.035156 -9.878906 29.953125 -5.921875 C 25.867188 -1.972656 20.914062 0 15.09375 0 L 3.03125 0 Z M 12.515625 -8.484375 L 13.984375 -8.484375 C 17.441406 -8.484375 20.273438 -9.648438 22.484375 -11.984375 C 24.691406 -14.328125 25.8125 -17.265625 25.84375 -20.796875 C 25.84375 -24.328125 24.738281 -27.269531 22.53125 -29.625 C 20.332031 -31.976562 17.484375 -33.15625 13.984375 -33.15625 L 12.515625 -33.15625 Z M 12.515625 -8.484375 "/></g></g></g><g fill="#00faa8" fill-opacity="1"><g transform="translate(228.17586, 205.517739)"><g><path d="M 5.46875 -3.078125 C 2.59375 -5.640625 1.15625 -8.921875 1.15625 -12.921875 C 1.15625 -16.921875 2.648438 -20.207031 5.640625 -22.78125 C 8.640625 -25.351562 12.34375 -26.640625 16.75 -26.640625 C 21.09375 -26.640625 24.753906 -25.34375 27.734375 -22.75 C 30.710938 -20.164062 32.203125 -16.890625 32.203125 -12.921875 C 32.203125 -8.953125 30.742188 -5.679688 27.828125 -3.109375 C 24.921875 -0.535156 21.226562 0.75 16.75 0.75 C 12.113281 0.75 8.351562 -0.523438 5.46875 -3.078125 Z M 12.390625 -17.3125 C 11.234375 -16.164062 10.65625 -14.703125 10.65625 -12.921875 C 10.65625 -11.140625 11.207031 -9.679688 12.3125 -8.546875 C 13.425781 -7.421875 14.890625 -6.859375 16.703125 -6.859375 C 18.453125 -6.859375 19.890625 -7.429688 21.015625 -8.578125 C 22.140625 -9.722656 22.703125 -11.171875 22.703125 -12.921875 C 22.703125 -14.703125 22.125 -16.164062 20.96875 -17.3125 C 19.8125 -18.457031 18.390625 -19.03125 16.703125 -19.03125 C 14.984375 -19.03125 13.546875 -18.457031 12.390625 -17.3125 Z M 12.390625 -17.3125 "/></g></g></g><g fill="#00faa8" fill-opacity="1"><g transform="translate(261.538338, 205.517739)"><g><path d="M 16.8125 -19.328125 C 15.125 -19.328125 13.675781 -18.703125 12.46875 -17.453125 C 11.257812 -16.210938 10.65625 -14.71875 10.65625 -12.96875 C 10.65625 -11.1875 11.257812 -9.671875 12.46875 -8.421875 C 13.675781 -7.179688 15.125 -6.5625 16.8125 -6.5625 C 17.613281 -6.5625 18.375 -6.660156 19.09375 -6.859375 C 19.820312 -7.066406 20.351562 -7.269531 20.6875 -7.46875 L 21.140625 -7.765625 L 24.171875 -1.5625 C 23.941406 -1.394531 23.613281 -1.1875 23.1875 -0.9375 C 22.769531 -0.6875 21.8125 -0.34375 20.3125 0.09375 C 18.8125 0.53125 17.207031 0.75 15.5 0.75 C 11.695312 0.75 8.351562 -0.582031 5.46875 -3.25 C 2.59375 -5.925781 1.15625 -9.132812 1.15625 -12.875 C 1.15625 -16.632812 2.59375 -19.867188 5.46875 -22.578125 C 8.351562 -25.285156 11.695312 -26.640625 15.5 -26.640625 C 17.207031 -26.640625 18.785156 -26.4375 20.234375 -26.03125 C 21.679688 -25.632812 22.707031 -25.234375 23.3125 -24.828125 L 24.171875 -24.21875 L 21.140625 -18.125 C 20.035156 -18.925781 18.59375 -19.328125 16.8125 -19.328125 Z M 16.8125 -19.328125 "/></g></g></g><g fill="#00faa8" fill-opacity="1"><g transform="translate(286.320448, 205.517739)"><g><path d="M 14.28125 -26.640625 C 15.757812 -26.640625 17.222656 -26.472656 18.671875 -26.140625 C 20.117188 -25.804688 21.195312 -25.472656 21.90625 -25.140625 L 22.96875 -24.625 L 20.03125 -18.78125 C 18.019531 -19.851562 16.101562 -20.390625 14.28125 -20.390625 C 13.269531 -20.390625 12.550781 -20.28125 12.125 -20.0625 C 11.707031 -19.84375 11.5 -19.429688 11.5 -18.828125 C 11.5 -18.691406 11.515625 -18.554688 11.546875 -18.421875 C 11.585938 -18.285156 11.65625 -18.15625 11.75 -18.03125 C 11.851562 -17.914062 11.945312 -17.816406 12.03125 -17.734375 C 12.113281 -17.648438 12.253906 -17.554688 12.453125 -17.453125 C 12.660156 -17.359375 12.820312 -17.285156 12.9375 -17.234375 C 13.0625 -17.179688 13.253906 -17.101562 13.515625 -17 C 13.785156 -16.90625 13.988281 -16.832031 14.125 -16.78125 C 14.257812 -16.726562 14.488281 -16.648438 14.8125 -16.546875 C 15.132812 -16.453125 15.378906 -16.390625 15.546875 -16.359375 C 16.585938 -16.046875 17.492188 -15.703125 18.265625 -15.328125 C 19.046875 -14.960938 19.863281 -14.460938 20.71875 -13.828125 C 21.570312 -13.191406 22.234375 -12.382812 22.703125 -11.40625 C 23.179688 -10.425781 23.421875 -9.316406 23.421875 -8.078125 C 23.421875 -2.191406 19.332031 0.75 11.15625 0.75 C 9.300781 0.75 7.539062 0.46875 5.875 -0.09375 C 4.207031 -0.664062 3.003906 -1.238281 2.265625 -1.8125 L 1.15625 -2.71875 L 4.796875 -8.828125 C 5.066406 -8.597656 5.421875 -8.320312 5.859375 -8 C 6.296875 -7.675781 7.082031 -7.238281 8.21875 -6.6875 C 9.363281 -6.132812 10.359375 -5.859375 11.203125 -5.859375 C 13.054688 -5.859375 13.984375 -6.476562 13.984375 -7.71875 C 13.984375 -8.289062 13.742188 -8.734375 13.265625 -9.046875 C 12.796875 -9.367188 12 -9.734375 10.875 -10.140625 C 9.75 -10.546875 8.863281 -10.914062 8.21875 -11.25 C 6.601562 -12.09375 5.328125 -13.046875 4.390625 -14.109375 C 3.453125 -15.171875 2.984375 -16.570312 2.984375 -18.3125 C 2.984375 -20.9375 4 -22.976562 6.03125 -24.4375 C 8.0625 -25.90625 10.8125 -26.640625 14.28125 -26.640625 Z M 14.28125 -26.640625 "/></g></g></g><g clip-path="url(#08eb352da9)"><g clip-path="url(#40d39ab67a)"><path fill="#00faa8" d="M 313.460938 196.980469 L 324.382812 196.980469 L 324.382812 207.902344 L 313.460938 207.902344 Z M 313.460938 196.980469 " fill-opacity="1" fill-rule="nonzero"/></g></g><g clip-path="url(#be786220c6)"><g clip-path="url(#8e3048937e)"><path fill="url(#5a62aeb681)" d="M 37.503906 153.398438 L 37.503906 221.597656 L 102.492188 221.597656 L 102.492188 153.398438 Z M 37.503906 153.398438 " fill-rule="nonzero"/></g></g></svg>